<svg id="visual" viewBox="0 0 1000 50" width="1000" height="50" xmlns="http://www.w3.org/2000/svg" xmlns:xlink="http://www.w3.org/1999/xlink" version="1.1"><path d="M0 15L45 42L91 39L136 16L182 40L227 32L273 29L318 35L364 15L409 36L455 25L500 42L545 15L591 41L636 37L682 21L727 12L773 28L818 15L864 42L909 30L955 14L1000 12L1000 51L955 51L909 51L864 51L818 51L773 51L727 51L682 51L636 51L591 51L545 51L500 51L455 51L409 51L364 51L318 51L273 51L227 51L182 51L136 51L91 51L45 51L0 51Z" fill="#212121" stroke-linecap="square" stroke-linejoin="bevel"></path></svg>