<svg id="visual" viewBox="0 0 1000 50" width="1000" height="50" xmlns="http://www.w3.org/2000/svg" xmlns:xlink="http://www.w3.org/1999/xlink" version="1.1"><path d="M0 17L91 16L182 21L273 14L364 25L455 15L545 13L636 24L727 21L818 16L909 19L1000 17L1000 51L909 51L818 51L727 51L636 51L545 51L455 51L364 51L273 51L182 51L91 51L0 51Z" fill="#212121"></path><path d="M0 31L91 24L182 22L273 28L364 30L455 24L545 20L636 31L727 34L818 33L909 24L1000 28L1000 51L909 51L818 51L727 51L636 51L545 51L455 51L364 51L273 51L182 51L91 51L0 51Z" fill="#1c1c1c"></path><path d="M0 34L91 41L182 38L273 30L364 36L455 32L545 40L636 31L727 38L818 41L909 41L1000 36L1000 51L909 51L818 51L727 51L636 51L545 51L455 51L364 51L273 51L182 51L91 51L0 51Z" fill="#181818"></path></svg>